<svg xmlns="http://www.w3.org/2000/svg" xmlns:xlink="http://www.w3.org/1999/xlink" width="156px" height="156px" viewBox="0 0 156 156" version="1.1">
    <title>torob-mask1</title>
    <defs>
        <path d="M18.4459941,38.9251899 C36.5304034,10.8559857 70.4386709,-0.102539257 100.202594,9.89471155 C97.508771,13.9320628 96.0959265,18.7384334 96.2843058,23.7370588 C96.4350092,26.4863028 97.0378229,29.1778703 97.9797192,31.677183 C75.7886419,21.8337361 49.2271658,29.3701251 35.4754796,50.7104105 C22.9105827,70.0896967 24.7943753,94.8905689 38.5648995,111.962797 L38.5648995,112.039699 C44.4046566,119.26848 45.1581737,129.784819 39.8835543,137.9941 C44.9697944,129.977074 54.5771369,126.554938 63.0542037,128.823545 L63.1860692,128.823545 C84.0961675,135.206405 107.455196,127.22783 120.076607,107.675515 C132.754531,88.0078462 130.607008,62.8224644 116.403211,45.7117851 C117.119052,45.7886871 117.816056,45.827138 118.569573,45.827138 C118.833304,45.827138 119.13471,45.827138 119.398441,45.7886871 C125.426578,45.5964322 130.94609,42.9817666 135.03392,38.4830038 L136.070006,37.2525729 L136.088844,37.2141219 C152.421326,60.9575926 153.834171,93.4102068 137.256796,119.114677 C115.59318,152.567016 71.4559189,161.987502 38.6025753,139.858972 C5.82458348,117.749667 -3.31181079,72.5697839 18.4459941,38.9251899 Z M128.297991,19.3120476 C136.454681,19.8234818 137.776366,21.7176825 137.776366,21.7176825 C137.776366,21.7176825 137.778697,21.7995307 137.779733,21.9502352 L137.779863,22.2263105 C137.771122,23.8486583 137.587554,28.9787853 135.699431,32.1357865 C133.433684,35.9241879 128.713378,41.493138 121.916136,42.8948466 C115.118894,44.2776131 108.28389,40.2997916 108.28389,40.2997916 C108.28389,40.2997916 107.717453,33.480669 110.738449,28.5557471 C113.759446,23.6308252 120.179063,18.8006134 128.297991,19.3120476 Z M104.273305,9.38597513 C109.091793,3.95107179 114.625525,3.72061653 114.24908,3.81663955 C118.578191,8.2336988 119.142857,17.4519094 119.142857,17.4519094 C119.142857,17.4519094 114.24908,18.4505489 109.731748,25.1721608 C105.214416,31.8937727 105.967305,38.6153846 105.967305,38.6153846 L105.951376,38.607206 C105.651528,38.4508462 101.197946,36.0250414 99.3795282,28.9746727 C97.4973064,21.6769226 100.019484,14.1487173 104.273305,9.38597513 Z" id="path-1"/>
    </defs>
    <g id="Page-2" stroke="none" stroke-width="1" fill="none" fill-rule="evenodd">
        <g id="torob-mask1">
            <rect id="light" x="0" y="0" width="156" height="156"/>
            <mask id="mask-2" fill="white">
                <use xlink:href="#path-1"/>
            </mask>
            <use id="torob-mask" fill="#000000" fill-rule="nonzero" xlink:href="#path-1"/>
        </g>
    </g>
</svg>
