<svg xmlns="http://www.w3.org/2000/svg" xmlns:xlink="http://www.w3.org/1999/xlink" width="144px" height="149px" viewBox="0 0 144 149" version="1.1">
    <title>torob-mask</title>
    <defs>
        <path d="M12.4459941,35.9251899 C30.5304034,7.85598567 64.4386709,-3.10253926 94.2025945,6.89471155 C91.508771,10.9320628 90.0959265,15.7384334 90.2843058,20.7370588 C90.4350092,23.4863028 91.0378229,26.1778703 91.9797192,28.677183 C69.7886419,18.8337361 43.2271658,26.3701251 29.4754796,47.7104105 C16.9105827,67.0896967 18.7943753,91.8905689 32.5648995,108.962797 L32.5648995,109.039699 C38.4046566,116.26848 39.1581737,126.784819 33.8835543,134.9941 C38.9697944,126.977074 48.5771369,123.554938 57.0542037,125.823545 L57.1860692,125.823545 C78.0961675,132.206405 101.455196,124.22783 114.076607,104.675515 C126.754531,85.0078462 124.607008,59.8224644 110.403211,42.7117851 C111.119052,42.7886871 111.816056,42.827138 112.569573,42.827138 C112.833304,42.827138 113.13471,42.827138 113.398441,42.7886871 C119.426578,42.5964322 124.94609,39.9817666 129.03392,35.4830038 L130.070006,34.2525729 L130.088844,34.2141219 C146.421326,57.9575926 147.834171,90.4102068 131.256796,116.114677 C109.59318,149.567016 65.4559189,158.987502 32.6025753,136.858972 C-0.175416516,114.749667 -9.31181079,69.5697839 12.4459941,35.9251899 Z M122.297991,16.3120476 C130.454681,16.8234818 131.776366,18.7176825 131.776366,18.7176825 C131.776366,18.7176825 131.778697,18.7995307 131.779733,18.9502352 L131.779863,19.2263105 C131.771122,20.8486583 131.587554,25.9787853 129.699431,29.1357865 C127.433684,32.9241879 122.713378,38.493138 115.916136,39.8948466 C109.118894,41.2776131 102.28389,37.2997916 102.28389,37.2997916 C102.28389,37.2997916 101.717453,30.480669 104.738449,25.5557471 C107.759446,20.6308252 114.179063,15.8006134 122.297991,16.3120476 Z M98.2733049,6.38597513 C103.091793,0.951071791 108.625525,0.720616526 108.24908,0.816639553 C112.578191,5.2336988 113.142857,14.4519094 113.142857,14.4519094 C113.142857,14.4519094 108.24908,15.4505489 103.731748,22.1721608 C99.2144158,28.8937727 99.9673045,35.6153846 99.9673045,35.6153846 L99.9513764,35.607206 C99.6515282,35.4508462 95.1979459,33.0250414 93.3795282,25.9746727 C91.4973064,18.6769226 94.0194836,11.1487173 98.2733049,6.38597513 Z" id="path-1"/>
    </defs>
    <g id="Page-2" stroke="none" stroke-width="1" fill="none" fill-rule="evenodd">
        <mask id="mask-2" fill="white">
            <use xlink:href="#path-1"/>
        </mask>
        <use id="torob-mask" fill="#000000" fill-rule="nonzero" xlink:href="#path-1"/>
    </g>
</svg>
